<svg xmlns="http://www.w3.org/2000/svg" width="1800" height="1200" viewBox="0 0 1800 1200" role="img" aria-label="Premium bridal beauty studio ambience">
  <defs>
    <radialGradient id="a" cx="36%" cy="28%" r="55%">
      <stop offset="0" stop-color="#f4d58d" stop-opacity=".72"/>
      <stop offset=".36" stop-color="#c15ac4" stop-opacity=".32"/>
      <stop offset="1" stop-color="#120815" stop-opacity="0"/>
    </radialGradient>
    <radialGradient id="b" cx="78%" cy="38%" r="44%">
      <stop offset="0" stop-color="#fff7f1" stop-opacity=".6"/>
      <stop offset=".24" stop-color="#f7b7c9" stop-opacity=".34"/>
      <stop offset="1" stop-color="#4a174e" stop-opacity="0"/>
    </radialGradient>
    <linearGradient id="c" x1="0" x2="1" y1="0" y2="1">
      <stop offset="0" stop-color="#120815"/>
      <stop offset=".48" stop-color="#4a174e"/>
      <stop offset="1" stop-color="#8b5d2d"/>
    </linearGradient>
    <linearGradient id="d" x1=".15" x2=".88" y1=".02" y2=".94">
      <stop offset="0" stop-color="#fff7f1"/>
      <stop offset=".42" stop-color="#f4d58d"/>
      <stop offset="1" stop-color="#c7953b"/>
    </linearGradient>
    <filter id="blur" x="-20%" y="-20%" width="140%" height="140%">
      <feGaussianBlur stdDeviation="28"/>
    </filter>
  </defs>
  <rect width="1800" height="1200" fill="url(#c)"/>
  <rect width="1800" height="1200" fill="url(#a)"/>
  <rect width="1800" height="1200" fill="url(#b)"/>
  <g opacity=".38" filter="url(#blur)">
    <circle cx="1260" cy="230" r="210" fill="#f4d58d"/>
    <circle cx="610" cy="860" r="260" fill="#c15ac4"/>
    <circle cx="1420" cy="920" r="260" fill="#f7b7c9"/>
  </g>
  <g opacity=".24" fill="none" stroke="#fff7f1" stroke-width="2">
    <path d="M220 1040c240-220 420-188 600-310 220-148 294-390 650-478"/>
    <path d="M330 1110c220-196 422-154 604-294 174-134 286-326 552-402"/>
    <path d="M1020 166c122 72 252 86 382 44"/>
  </g>
  <g transform="translate(1085 225)">
    <path d="M249 4c100 20 177 106 181 210 4 120-96 224-216 224S0 344 0 224C0 104 105-20 249 4Z" fill="#120815" opacity=".54"/>
    <path d="M223 26c84 17 149 90 152 178 4 101-81 189-182 189S12 314 12 213C12 112 101 6 223 26Z" fill="url(#d)" opacity=".82"/>
    <path d="M152 122c38-46 124-54 165-8 35 40 26 109-19 142-54 40-144 17-166-45-10-29-4-61 20-89Z" fill="#4a174e" opacity=".54"/>
    <circle cx="267" cy="182" r="16" fill="#fff7f1" opacity=".82"/>
    <circle cx="209" cy="176" r="12" fill="#fff7f1" opacity=".72"/>
  </g>
  <g transform="translate(124 184)" opacity=".72">
    <path d="M0 530C86 312 226 160 420 76 564 14 714-4 870 24" fill="none" stroke="#f4d58d" stroke-width="18" stroke-linecap="round" opacity=".42"/>
    <path d="M44 562c124-156 275-248 454-276 136-22 252-2 348 60" fill="none" stroke="#fff7f1" stroke-width="7" stroke-linecap="round" opacity=".42"/>
    <circle cx="760" cy="84" r="46" fill="#f4d58d" opacity=".4"/>
    <circle cx="838" cy="136" r="20" fill="#fff7f1" opacity=".45"/>
  </g>
</svg>
